<?xml version="1.0" encoding="utf-8"?>
<!-- Generator: Adobe Illustrator 12.0.0, SVG Export Plug-In  -->
<!DOCTYPE svg PUBLIC "-//W3C//DTD SVG 1.1//EN" "http://www.w3.org/Graphics/SVG/1.1/DTD/svg11.dtd" [
	<!ENTITY ns_flows "http://ns.adobe.com/Flows/1.0/">
	<!ENTITY ns_svg "http://www.w3.org/2000/svg">
	<!ENTITY ns_xlink "http://www.w3.org/1999/xlink">
]>
<svg  version="1.1" xmlns="&ns_svg;" xmlns:xlink="&ns_xlink;" xmlns:a="http://ns.adobe.com/AdobeSVGViewerExtensions/3.0/"
	 width="15" height="15" viewBox="-0.822 -0.456 15 15" enable-background="new -0.822 -0.456 15 15" xml:space="preserve">
<defs>
</defs>
<path d="M0.77,1.541C0.462,1.541,0,1.051,0,0.771C0,0.489,0.462,0,0.77,0c0.309,0,0.771,0.489,0.771,0.771
	C1.541,1.051,1.078,1.541,0.77,1.541z M0.056,12.867c0-0.309,0.477-0.771,0.771-0.771s0.77,0.462,0.77,0.771
	c0,0.307-0.476,0.771-0.77,0.771S0.056,13.174,0.056,12.867z M2.241,3.024c-0.309,0-0.771-0.476-0.771-0.771
	c0-0.293,0.462-0.771,0.771-0.771c0.308,0,0.784,0.478,0.784,0.771C3.025,2.549,2.548,3.024,2.241,3.024z M1.485,11.438
	c0-0.308,0.476-0.771,0.77-0.771s0.771,0.463,0.771,0.771s-0.477,0.771-0.771,0.771S1.485,11.746,1.485,11.438z M4.62,3.852
	c0-1.346,0.868-2.282,2.254-2.282c1.386,0,2.199,0.952,2.199,2.282h0.026c0-0.112,0.378-0.854,0.826-0.854
	c0.31,0,0.798,0.504,0.798,0.799c0,0.461-0.74,0.826-0.854,0.84v0.027c1.344,0,2.295,0.799,2.295,2.185S11.213,9.103,9.87,9.103
	v0.028c0.07,0,0.854,0.35,0.854,0.826c0,0.278-0.378,0.756-0.756,0.756c-0.462,0-0.826-0.784-0.826-0.854H9.114
	c0,1.345-0.854,2.296-2.24,2.296c-1.4,0-2.198-0.951-2.198-2.296H4.649c-0.015,0.112-0.379,0.854-0.826,0.854
	c-0.309,0-0.813-0.504-0.813-0.799c0-0.447,0.756-0.826,0.868-0.826V9.061c-1.344,0-2.296-0.813-2.296-2.198
	c0-1.385,0.938-2.254,2.282-2.254V4.58c-0.057,0-0.84-0.35-0.84-0.826c0-0.377,0.504-0.74,0.741-0.74
	c0.477,0,0.841,0.783,0.826,0.84H4.62V3.852z M5.754,5.728c-0.14,0.142-0.28,0.278-0.49,0.278c-0.336,0-0.615-0.336-0.77-0.824
	C4.437,5.153,4.368,5.153,4.298,5.153c-0.378,0-1.078,0.379-1.078,0.813c0,0.293,0.267,0.63,0.798,0.896
	C3.487,7.129,3.22,7.492,3.22,7.801c0,0.447,0.658,0.756,1.036,0.756c0.084,0,0.168-0.014,0.238-0.042
	c0.126-0.462,0.448-0.826,0.77-0.826c0.309,0,0.771,0.476,0.771,0.771c0,0.336-0.364,0.645-0.826,0.783
	c-0.028,0.07-0.042,0.141-0.042,0.225c0,0.379,0.308,1.035,0.756,1.035c0.308,0,0.672-0.266,0.952-0.783
	c0.266,0.519,0.602,0.783,0.896,0.783c0.421,0,0.813-0.699,0.813-1.078c0-0.068-0.014-0.139-0.043-0.194
	C8.052,9.075,7.729,8.81,7.729,8.474c0-0.21,0.141-0.364,0.268-0.49c0.14-0.126,0.279-0.267,0.49-0.267
	c0.336,0,0.602,0.322,0.756,0.813c0.068,0.028,0.125,0.042,0.209,0.042c0.363,0,1.063-0.392,1.063-0.825
	c0-0.279-0.252-0.615-0.784-0.896c0.532-0.268,0.784-0.631,0.784-0.938c0-0.447-0.657-0.757-1.021-0.757
	c-0.084,0-0.168,0.015-0.238,0.043C9.13,5.66,8.808,6.023,8.472,6.023c-0.294,0-0.771-0.462-0.771-0.771
	c0-0.32,0.363-0.644,0.84-0.77c0.029-0.07,0.043-0.154,0.043-0.238c0-0.377-0.309-1.035-0.771-1.035
	c-0.308,0-0.657,0.267-0.938,0.797c-0.266-0.53-0.602-0.797-0.896-0.797c-0.42,0-0.812,0.699-0.812,1.078
	c0,0.069,0.014,0.141,0.028,0.195C5.684,4.637,6.02,4.902,6.02,5.238c0,0.211-0.14,0.364-0.279,0.504L5.754,5.728z M7.896,6.875
	c0,0.393-0.63,1.008-1.021,1.008c-0.391,0-1.022-0.615-1.022-1.008c0-0.406,0.631-1.021,1.022-1.021
	C7.266,5.854,7.896,6.47,7.896,6.875z M11.411,3.123c-0.31,0-0.771-0.477-0.771-0.771s0.462-0.771,0.771-0.771
	c0.308,0,0.77,0.477,0.77,0.771S11.718,3.123,11.411,3.123z M10.64,11.424c0-0.307,0.478-0.782,0.771-0.782
	c0.295,0,0.771,0.478,0.771,0.782c0,0.31-0.476,0.771-0.771,0.771C11.118,12.195,10.64,11.732,10.64,11.424z M12.909,1.625
	c-0.31,0-0.785-0.49-0.785-0.771c0-0.281,0.477-0.771,0.785-0.771c0.293,0,0.77,0.477,0.77,0.771S13.202,1.625,12.909,1.625z
	 M12.124,12.896c0-0.31,0.477-0.771,0.771-0.771s0.771,0.461,0.771,0.771s-0.477,0.771-0.771,0.771S12.124,13.203,12.124,12.896z"/>
</svg>
