<?xml version="1.0" encoding="utf-8"?>
<!-- Generator: Adobe Illustrator 12.0.0, SVG Export Plug-In  -->
<!DOCTYPE svg PUBLIC "-//W3C//DTD SVG 1.1//EN" "http://www.w3.org/Graphics/SVG/1.1/DTD/svg11.dtd" [
	<!ENTITY ns_flows "http://ns.adobe.com/Flows/1.0/">
	<!ENTITY ns_svg "http://www.w3.org/2000/svg">
	<!ENTITY ns_xlink "http://www.w3.org/1999/xlink">
]>
<svg  version="1.1" xmlns="&ns_svg;" xmlns:xlink="&ns_xlink;" xmlns:a="http://ns.adobe.com/AdobeSVGViewerExtensions/3.0/"
	 width="6" height="7" viewBox="-0.426 -0.974 6 7" enable-background="new -0.426 -0.974 6 7" xml:space="preserve">
<defs>
</defs>
<path d="M0,2.529C0,1.83,0.247,1.233,0.742,0.74C1.236,0.246,1.832,0,2.529,0c0.699,0,1.296,0.246,1.789,0.74
	c0.493,0.493,0.74,1.09,0.74,1.789c0,0.697-0.247,1.293-0.74,1.787c-0.493,0.495-1.09,0.742-1.789,0.742
	c-0.697,0-1.293-0.247-1.787-0.742C0.247,3.822,0,3.227,0,2.529z M0.211,2.529c0,0.645,0.225,1.193,0.676,1.643
	c0.45,0.451,0.998,0.676,1.643,0.676c0.647,0,1.196-0.225,1.646-0.676c0.45-0.449,0.676-0.998,0.676-1.643
	c0-0.647-0.226-1.196-0.676-1.646c-0.45-0.451-0.999-0.676-1.646-0.676S1.334,0.432,0.885,0.883
	C0.436,1.333,0.211,1.882,0.211,2.529z M2.479,1.539H2.396c-0.34,0-0.51-0.217-0.51-0.648c0-0.164,0.026-0.275,0.08-0.334
	s0.157-0.088,0.31-0.088h0.096c-0.05,0.148-0.075,0.283-0.075,0.404C2.297,1.104,2.357,1.326,2.479,1.539z M2.381,4.641H2.274
	c-0.138,0-0.231-0.029-0.283-0.089S1.914,4.385,1.914,4.227c0-0.438,0.159-0.656,0.479-0.656h0.103
	C2.381,3.78,2.324,4.007,2.324,4.251C2.324,4.388,2.343,4.518,2.381,4.641z M3.162,4.395C2.961,4.516,2.733,4.598,2.479,4.641
	c-0.03-0.133-0.045-0.262-0.045-0.39c0-0.214,0.057-0.441,0.171-0.681h0.048c0.222,0,0.332-0.333,0.332-0.998
	c0-0.689-0.111-1.033-0.333-1.033H2.604C2.472,1.311,2.406,1.087,2.406,0.867c0-0.135,0.025-0.267,0.075-0.396
	C2.715,0.51,2.942,0.592,3.162,0.717c0.104,0.28,0.184,0.574,0.236,0.879C3.45,1.902,3.477,2.22,3.477,2.551
	c0,0.338-0.026,0.659-0.078,0.967C3.346,3.824,3.267,4.116,3.162,4.395z"/>
</svg>
