<?xml version="1.0" encoding="utf-8"?>
<!-- Generator: Adobe Illustrator 12.0.0, SVG Export Plug-In  -->
<!DOCTYPE svg PUBLIC "-//W3C//DTD SVG 1.1//EN" "http://www.w3.org/Graphics/SVG/1.1/DTD/svg11.dtd" [
	<!ENTITY ns_flows "http://ns.adobe.com/Flows/1.0/">
	<!ENTITY ns_svg "http://www.w3.org/2000/svg">
	<!ENTITY ns_xlink "http://www.w3.org/1999/xlink">
]>
<svg  version="1.1" xmlns="&ns_svg;" xmlns:xlink="&ns_xlink;" xmlns:a="http://ns.adobe.com/AdobeSVGViewerExtensions/3.0/"
	 width="7" height="7" viewBox="-0.975 -0.505 7 7" enable-background="new -0.975 -0.505 7 7" xml:space="preserve">
<defs>
</defs>
<path d="M4.547,1.207c0-0.31-0.059-0.531-0.176-0.666S4.061,0.34,3.792,0.34c-0.535,0-0.944,0.384-1.227,1.152L2.511,1.646
	c-0.332,0.9-0.817,1.351-1.455,1.351c-0.255,0-0.495-0.099-0.719-0.297C0.112,2.501,0,2.291,0,2.066c0-0.114,0.054-0.171,0.16-0.171
	c0.071,0,0.143,0.09,0.216,0.271C0.513,2.493,0.74,2.656,1.06,2.656c0.243,0,0.442-0.078,0.596-0.234
	C1.81,2.266,1.983,1.967,2.177,1.525l0.126-0.281C2.674,0.415,3.176,0,3.807,0c0.718,0,1.076,0.402,1.076,1.207h0.349
	c0.24,0,0.394,0.033,0.461,0.098s0.101,0.212,0.101,0.442V4.35c0,0.36-0.127,0.668-0.381,0.922C5.157,5.525,4.851,5.652,4.49,5.652
	c-0.357,0-0.664-0.127-0.918-0.381S3.191,4.71,3.191,4.35V1.747c0-0.221,0.036-0.366,0.107-0.436
	c0.072-0.07,0.223-0.104,0.452-0.104H4.547z M4.633,1.375h-0.89c-0.165,0-0.27,0.021-0.315,0.065
	C3.382,1.483,3.359,1.582,3.359,1.735v0.542h1.273V1.375z M3.359,2.445V4.35c0,0.313,0.11,0.579,0.331,0.801
	c0.222,0.223,0.488,0.334,0.8,0.334c0.314,0,0.582-0.11,0.804-0.332C5.515,4.932,5.625,4.664,5.625,4.35V2.445H3.359z M4.801,1.375
	v0.902h0.824V1.735c0-0.16-0.021-0.26-0.065-0.3c-0.043-0.04-0.149-0.06-0.317-0.06H4.801z"/>
</svg>
